<svg id="eVHKXgs6O1W1" xmlns="http://www.w3.org/2000/svg" xmlns:xlink="http://www.w3.org/1999/xlink" viewBox="0 0 40 40" shape-rendering="geometricPrecision" text-rendering="geometricPrecision" project-id="a466f987e28b4d92a01a3be29c767e85" export-id="5478f10763614a538fda283299d27aa4" cached="false"><path d="M13.160197,6.94017L41.78006,0.000058c3.435211,0,4.705983,1.27076,4.705983,4.705971L40.223774,34.003668c-.947517,3.607201-2.657318,5.316998-6.22,6.22L4.338643,46.853309c-3.435211,0-4.952743-1.024001-4.952743-4.459212L6.940197,13.16017c1.265963-4.339873,1.534997-4.684938,6.22-6.22Z" transform="matrix(.263066 0.263066-.263066 0.263066 20.129106 0.161533)" fill="#5a9aff" stroke="#000"/><path d="M22.468865,15.182756l25.415928.000001c3.435211,0,3.895017,2.343579,3.895017,4.138418L38.065976,44.985394c-1.153229,2.192336-2.31313,2.192336-3.954007,2.192336L5.341051,47.177728c-3.435211,0-4.530865-2.192337-4.530865-2.192337L17.098713,19.321174c1.194064-2.200991,2.691959-4.202451,5.370152-4.138418Z" transform="matrix(0 0.372031-.372032 0 25.68093 13.326995)" fill="#fff" stroke="#000"/><path d="M22.468865,15.182756l26.19792-.000002c3.435211,0,4.548832,2.343578,4.548832,4.138417L37.366799,43.908356c-1.153229,2.192336-2.8913,3.269374-4.532177,3.269374l-25.415926.000002c-3.895019.174498-3.895023-3.269374-3.895023-3.269374l13.57504-24.587184c1.194064-2.200991,2.691959-4.202451,5.370152-4.138418Z" transform="matrix(0-.372031-.372032 0 37.584087 33.901606)" fill="#feff5a" stroke="#000"/><path d="M42.899496,43.866571l-.932759-1.324504-.04,2.7.972759-1.375496Z" transform="translate(-33.954571-30.238161)"/><path d="M43.157255,43.963357l-1.190518-1.42129-.129482,3.04129l1.32-1.62Z" transform="matrix(-1 0 0 1 73.939514-30.013927)"/><path d="M43.157255,43.963357l-.907727-1.341493.000992,2.808667.906735-1.467174Z" transform="matrix(0-1-1 0 63.930691 75.014429)"/><path d="M43.245014,43.845678l-1-.763158v1.631579l1-.868421Z" transform="matrix(0 1 1 0-23.849193-22.103529)"/></svg>
